# xmcd
#
# Track frame offsets:
#	150
#	18195
#	37835
#	56448
#	75589
#	92292
#	107881
#	124300
#	143133
#	168234
#	178116
#
# Disc length: 2840 seconds
#
# Revision: 0
# Processed by: cddbd v1.5.2PL0 Copyright (c) Steve Scherf et al.
# Submitted via: EZCDAudioConverter 7.1.5.1
#
DISCID=7f0b160b
DTITLE=Bennett Wilson Poole
DYEAR=2018
DGENRE=
TTITLE0=Soon Enough
TTITLE1=Ask Me Anything
TTITLE2=Funny Guys
TTITLE3=Hide Behind A Smile
TTITLE4=Wilson General Store
TTITLE5=Hate Won't Win
TTITLE6=The Other Side Of The Sky
TTITLE7=That Thing That You Called Love
TTITLE8=Not Forgetting (Just Not Remembering)
TTITLE9=Find Your Own truth
TTITLE10=Lifeboat (Take A Picture Of Yourself)
EXTD=
EXTT0=
EXTT1=
EXTT2=
EXTT3=
EXTT4=
EXTT5=
EXTT6=
EXTT7=
EXTT8=
EXTT9=
EXTT10=
PLAYORDER=
